<?xml version="1.0" encoding="UTF-8"?>
<svg id="Layer_2" data-name="Layer 2" xmlns="http://www.w3.org/2000/svg" viewBox="0 0 231.78 183.28">
  <g id="Layer_1-2" data-name="Layer 1">
    <g>
      <path d="M105.32,160.7c-.3-.41-.6-.8-.9-1.18-4.05-4.99-9.06-10.09-13.97-14.72-12.99-12.25-27.29-28.02-35.86-43.41-.69-1.24-2.51-5.42-2.65-5.97-.49-1.96.5-3.9,2.22-4.33,1.57-.39,3.82,2.18,3.84,2.29.18.2.31.36.37.45,11.61,17.52,24.19,36.27,41.9,48.69,1.08.76,1.54,1.19,2.44,1.66,1.07.7,2.29,1.1,3.59,1.1,4.13,0,7.48-4.03,7.48-9,0-3.66-4.86-12.96-9.07-17.6-12.11-16.96-32.69-30.09-38.63-49.96-.61-1.27-1.11-2.65-1.48-4.11-.09-.07-.16-.15-.17-.23-.04-.25-.07-.57-.1-.96-.27-1.35-.43-2.76-.46-4.21-.12-4.95.96-9,2.8-12.05,0-.06,0-.11.03-.15.05-.09.17-.23.33-.42,2.67-4.06,6.73-6.2,10.94-6.2.59,0,1.17.03,1.75.08,4.44.92,6.64,1.48,11.66,5.71,4.67,4.84,5.36,5.6,7.77,10.65.41.87,1.7,3.08,2.26,3.77,1.6,1.95,2.82,3.23,5.13,3.93,2,.6,3.38-.43,3.55-.53,2.67-1.59,1.3-18.97-.03-23.81-.76-2.77-1.22-4.59-3.18-8.91-3.35-7.4-5.47-10.06-10.29-15.47C81.27.91,66.59-.25,58.09.03c-13.42.45-28.04,9.24-34.05,16.44-3.3,2.95-6.4,6.35-9.45,10.19C-12.69,61.05,2.46,115.99,25.92,148.2c2.8,3.84,5.89,7.46,9.45,10.96.51.5,1.09.92,1.72,1.24,1.28.65,1.74.71,2.73.68.19,0,.4-.06.62-.15,2.13-.5,3.94-2.77,2.56-4.92-1.69-2.63-3.2-4.7-4.54-6.34-9.14-13.67-18.13-27.7-22.12-43.51-.08-.3-.19-.71-.24-1-.06-.32-.09-.64-.09-.95-.05-.25-.07-.51-.07-.77,0-1.96,1.35-3.55,3.02-3.55,1.4,0,2.58,1.13,2.92,2.65.98,2.12,1.8,4.94,1.77,4.89,8.36,24.35,25.44,54.47,46.43,70.58,1.67,1.28,3.09,2.88,5.07,3.69,1.8.94,3.73,1.57,4.93,1.57,2.74,0,5.01-2.22,4.96-4.96-.04-1.93-1.2-4.19-2.69-5.86-1.3-1.7-2.71-2.8-4.34-4.63-16.59-18.75-28.87-37.74-41.52-59.64-1.53-2.65-2.72-5.2-2.87-6.02-.34-1.93,1.3-3.55,2.93-3.19,1.88.42,3.54,3.56,3.72,3.93,8.8,18.7,20.66,35.47,33.97,50.58,3.68,4.17,8.07,9.28,12.64,13.83,4.49,5.15,15.32,12.87,18.32,12.87,3.81,0,7.09-3.09,6.9-6.9-.15-3.07-3.46-9.08-6.76-12.59Z" fill="#37e581"/>
      <path d="M126.45,160.7c.3-.41.6-.8.9-1.18,4.05-4.99,9.06-10.09,13.97-14.72,12.99-12.25,27.29-28.02,35.86-43.41.69-1.24,2.51-5.42,2.65-5.97.49-1.96-.5-3.9-2.22-4.33-1.57-.39-3.82,2.18-3.84,2.29-.18.2-.31.36-.37.45-11.61,17.52-24.19,36.27-41.9,48.69-1.08.76-1.54,1.19-2.44,1.66-1.07.7-2.29,1.1-3.59,1.1-4.13,0-7.48-4.03-7.48-9,0-3.66,4.86-12.96,9.07-17.6,12.11-16.96,32.69-30.09,38.63-49.96.61-1.27,1.11-2.65,1.48-4.11.09-.07.16-.15.17-.23.04-.25.07-.57.1-.96.27-1.35.43-2.76.46-4.21.12-4.95-.96-9-2.8-12.05,0-.06,0-.11-.03-.15-.05-.09-.17-.23-.33-.42-2.67-4.06-6.73-6.2-10.94-6.2-.59,0-1.17.03-1.75.08-4.44.92-6.64,1.48-11.66,5.71-4.67,4.84-5.36,5.6-7.77,10.65-.41.87-1.7,3.08-2.26,3.77-1.6,1.95-2.82,3.23-5.13,3.93-2,.6-3.38-.43-3.55-.53-2.67-1.59-1.3-18.97.03-23.81.76-2.77,1.22-4.59,3.18-8.91,3.35-7.4,5.47-10.06,10.29-15.47C150.51.91,165.18-.25,173.69.03c13.42.45,28.04,9.24,34.05,16.44,3.3,2.95,6.4,6.35,9.45,10.19,27.28,34.38,12.13,89.33-11.32,121.54-2.8,3.84-5.89,7.46-9.45,10.96-.51.5-1.09.92-1.72,1.24-1.28.65-1.74.71-2.73.68-.19,0-.4-.06-.62-.15-2.13-.5-3.94-2.77-2.56-4.92,1.69-2.63,3.2-4.7,4.54-6.34,9.14-13.67,18.13-27.7,22.12-43.51.08-.3.19-.71.24-1,.06-.32.09-.64.09-.95.05-.25.07-.51.07-.77,0-1.96-1.35-3.55-3.02-3.55-1.4,0-2.58,1.13-2.92,2.65-.98,2.12-1.8,4.94-1.77,4.89-8.36,24.35-25.44,54.47-46.43,70.58-1.67,1.28-3.09,2.88-5.07,3.69-1.8.94-3.73,1.57-4.93,1.57-2.74,0-5.01-2.22-4.96-4.96.04-1.93,1.2-4.19,2.69-5.86,1.3-1.7,2.71-2.8,4.34-4.63,16.59-18.75,28.87-37.74,41.52-59.64,1.53-2.65,2.72-5.2,2.87-6.02.34-1.93-1.3-3.55-2.93-3.19-1.88.42-3.54,3.56-3.72,3.93-8.8,18.7-20.66,35.47-33.97,50.58-3.68,4.17-8.07,9.28-12.64,13.83-4.49,5.15-15.32,12.87-18.32,12.87-3.81,0-7.09-3.09-6.9-6.9.15-3.07,3.46-9.08,6.76-12.59Z" fill="#30d4ef"/>
    </g>
  </g>
</svg>