<?xml version="1.0" encoding="UTF-8"?>
<svg id="Layer_2" data-name="Layer 2" xmlns="http://www.w3.org/2000/svg" viewBox="0 0 243.14 180">
  <g id="Layer_1-2" data-name="Layer 1">
    <path d="M231.6,99c-1.91-2.04-4.06-4.12-6.6-6.02-2.6-1.96-5.59-3.79-9-5.4-4.98-2.36-10.88-4.27-17.87-5.5-.04.04-.09.07-.13.1v-.12s.09.02.13.02c.35-.25.69-.51,1.03-.77,9.71-7.63,15.98-18.8,15.98-36.02,0,0,0-15-10.64-27.29C196.01,8.19,180.27,0,153,0H36v47.29c-14.9-1.86-31.82-1.51-36-2.29v18c4.18.78,21.1.43,36,2.1,5.72.64,11.15,1.57,15.44,2.99.87.29,1.72.57,2.56.85,14.29,4.79,23.71,8.59,32.16,12.06,7.18,2.94,13.67,5.64,21.84,8.49,10.17,3.54,23.29,5.56,39.54,6.92h.01c9.68.8,20.49,1.37,32.44,1.88,7.05.76,13,1.96,18.01,3.45,8.28,2.45,12.44,4.18,18,8.98,4.14,3.57,4.98,5.85,6.14,8.57,2.15,5.03,2.44,9.79,1.08,15.09-1.21,4.72-3.61,8.38-7.22,11.67-4.89,4.49-11.31,7.71-18,10.02-17.1,5.92-36,5.92-36,5.92H54v-73.44c0-8.49-6.59-14.52-15.37-15.37h-2.63v106.81h144s18.9,0,36-8.87c4.54-2.36,8.96-5.35,12.86-9.13,8.22-7.96,14.28-19.15,14.28-35.71,0,0,0-15-11.54-27.29ZM153.09,79.41h-.02c-19.28-1.2-32.49-3.03-45.07-7.41-17.8-6.19-27.84-10.9-54-20.47V18h81c19.73.42,33.3,3.48,42.62,7.39,19.97,8.38,22.41,35.63,4.01,47.04-7,4.34-16.4,7.21-28.54,6.98Z" fill="#2e3f90"/>
  </g>
</svg>